<?xml version="1.0" encoding="utf-8"?>
<!-- Generator: Adobe Illustrator 18.1.0, SVG Export Plug-In . SVG Version: 6.00 Build 0)  -->
<!DOCTYPE svg PUBLIC "-//W3C//DTD SVG 1.1//EN" "http://www.w3.org/Graphics/SVG/1.1/DTD/svg11.dtd">
<svg version="1.1" xmlns="http://www.w3.org/2000/svg" xmlns:xlink="http://www.w3.org/1999/xlink" x="0px" y="0px"
	 viewBox="0 0 218.8 218.8" enable-background="new 0 0 218.8 218.8" xml:space="preserve">
<g id="Layer_1">
	<g>
		<circle fill="#F4B096" stroke="#ED7C50" stroke-width="4" stroke-miterlimit="10" cx="109.2" cy="109.4" r="106.4"/>
		<circle fill="#F4B096" stroke="#ED7C50" stroke-width="7" stroke-miterlimit="10" cx="109.2" cy="109.4" r="95.8"/>
	</g>
</g>
<g id="Layer_2">
	<g>
		<g>
			<rect x="43.4" y="60" fill="#ED7C50" width="1.2" height="102"/>
			<rect x="46.3" y="60" fill="#ED7C50" width="1.2" height="102"/>
		</g>
		<g>
			<rect x="49.1" y="60" fill="#ED7C50" width="4" height="94.4"/>
		</g>
		<g>
			<rect x="54.8" y="60" fill="#ED7C50" width="2.6" height="94.4"/>
		</g>
		<g>
			<rect x="61.8" y="60" fill="#ED7C50" width="1.2" height="94.4"/>
			<rect x="66.1" y="60" fill="#ED7C50" width="1.2" height="94.4"/>
		</g>
		<g>
			<rect x="68.9" y="60" fill="#ED7C50" width="2.6" height="94.4"/>
			<rect x="74.6" y="60" fill="#ED7C50" width="2.6" height="94.4"/>
			<rect x="78.9" y="60" fill="#ED7C50" width="2.6" height="94.4"/>
		</g>
		<g>
			<rect x="85.9" y="60" fill="#ED7C50" width="1.2" height="94.4"/>
			<rect x="93" y="60" fill="#ED7C50" width="1.2" height="94.4"/>
			<rect x="95.9" y="60" fill="#ED7C50" width="1.2" height="94.4"/>
		</g>
		<g>
			<rect x="98.7" y="60" fill="#ED7C50" width="2.6" height="94.4"/>
		</g>
		<g>
			<rect x="105.8" y="60" fill="#ED7C50" width="1.2" height="94.4"/>
			<rect x="108.6" y="60" fill="#ED7C50" width="1.2" height="102"/>
			<rect x="111.4" y="60" fill="#ED7C50" width="1.2" height="102"/>
		</g>
		<g>
			<rect x="114.3" y="60" fill="#ED7C50" width="4" height="94.4"/>
		</g>
		<g>
			<rect x="119.9" y="60" fill="#ED7C50" width="1.2" height="94.4"/>
		</g>
		<g>
			<rect x="124.2" y="60" fill="#ED7C50" width="2.6" height="94.4"/>
			<rect x="128.5" y="60" fill="#ED7C50" width="2.6" height="94.4"/>
		</g>
		<g>
			<rect x="134.1" y="60" fill="#ED7C50" width="1.2" height="94.4"/>
		</g>
		<g>
			<rect x="137" y="60" fill="#ED7C50" width="4" height="94.4"/>
		</g>
		<g>
			<rect x="144" y="60" fill="#ED7C50" width="1.2" height="94.4"/>
			<rect x="149.7" y="60" fill="#ED7C50" width="1.2" height="94.4"/>
		</g>
		<g>
			<rect x="154" y="60" fill="#ED7C50" width="4" height="94.4"/>
		</g>
		<g>
			<rect x="159.6" y="60" fill="#ED7C50" width="1.2" height="94.4"/>
			<rect x="163.9" y="60" fill="#ED7C50" width="1.2" height="94.4"/>
			<rect x="166.7" y="60" fill="#ED7C50" width="1.2" height="94.4"/>
			<rect x="173.8" y="60" fill="#ED7C50" width="1.2" height="102"/>
			<rect x="176.6" y="60" fill="#ED7C50" width="1.2" height="102"/>
		</g>
	</g>
</g>
</svg>
