<?xml version="1.0" encoding="utf-8"?>
<!-- Generator: Adobe Illustrator 18.1.0, SVG Export Plug-In . SVG Version: 6.00 Build 0)  -->
<!DOCTYPE svg PUBLIC "-//W3C//DTD SVG 1.1//EN" "http://www.w3.org/Graphics/SVG/1.1/DTD/svg11.dtd">
<svg version="1.1" xmlns="http://www.w3.org/2000/svg" xmlns:xlink="http://www.w3.org/1999/xlink" x="0px" y="0px"
	 viewBox="0 0 218.8 218.8" enable-background="new 0 0 218.8 218.8" xml:space="preserve">
<g id="Layer_1">
	<g>
		<circle fill="#F4B096" stroke="#ED7C50" stroke-width="4" stroke-miterlimit="10" cx="109.2" cy="109.4" r="106.4"/>
		<circle fill="#F4B096" stroke="#ED7C50" stroke-width="7" stroke-miterlimit="10" cx="109.2" cy="109.4" r="95.8"/>
	</g>
</g>
<g id="Layer_2">
	<g>
		<path fill="#ED7C50" d="M92.6,193.5c0.8,0,5.3-1.2,8.1-4.7c3.2-3.9,0.9-13.3-0.3-19.7c-1.2-6.4-3.3-21.4-4.2-31.5
			c-0.9-10.2-0.8-38-0.6-44.3c0.2-6.3,0.9-5.6,2.3-8.7c1.4-3.1,5.3-5.1,6.2-11.6c0.9-6.5-0.9-21.6-2.2-36.2
			c-1.3-14.7-1.4-11.9-1.4-9.9c0,2,0.2,38.1-0.1,40c-0.3,1.9-3.1,1.5-3.3,0c-0.2-1.5-0.3-2.7-0.8-10.6c-0.5-7.8-1.7-30.6-2.1-30.5
			C93.8,25.9,94,65.2,94,67.1c0,1.7-1.1,1.5-1.4,1.5h0c-0.3,0-1.4,0.2-1.4-1.5c0-1.9,0.2-41.2-0.2-41.3c-0.4-0.1-1.6,22.7-2.1,30.5
			c-0.5,7.8-0.6,9.1-0.8,10.6c-0.2,1.5-3,1.9-3.3,0c-0.3-1.9-0.1-38-0.1-40c0-2-0.1-4.8-1.4,9.9C81.8,51.5,80,66.5,80.9,73
			c0.9,6.5,4.8,8.5,6.2,11.6c1.4,3.1,2.1,2.3,2.3,8.7c0.2,6.3,0.3,34.1-0.6,44.3c-0.9,10.2-3,25.1-4.2,31.5
			c-1.2,6.4-3.5,15.9-0.3,19.7c2.8,3.5,7.3,4.7,8.1,4.7H92.6z"/>
		<path fill="#ED7C50" d="M123.7,32.9c0,0,2.9-5.6,4.8-6.8c1.9-1.1,4.8-2,5.1,3.1c0.3,5.1,1.7,63.7,1.5,67
			c-0.1,3.4-0.8,12.5-1.2,17.4c-0.4,4.8-0.8,7.5,0.7,24.1c1.6,16.6,4.5,37.6,2.3,44.9c0,0-1.6,6.9-7.5,6.9c-5.9,0-7-4.8-7.6-9.8
			c0,0-1-10.6,0.2-32.5c1.2-21.9,1.7-25.7,1.6-29.8c-0.1-4.1-1.8-13.9-2.5-18.9c-0.7-5.1-1.6-22.2-1.3-36.5
			C120,47.7,121.5,38,123.7,32.9z"/>
	</g>
</g>
</svg>
