<?xml version="1.0" encoding="utf-8"?>
<!-- Generator: Adobe Illustrator 18.1.0, SVG Export Plug-In . SVG Version: 6.00 Build 0)  -->
<!DOCTYPE svg PUBLIC "-//W3C//DTD SVG 1.1//EN" "http://www.w3.org/Graphics/SVG/1.1/DTD/svg11.dtd">
<svg version="1.1" id="Layer_1" xmlns="http://www.w3.org/2000/svg" xmlns:xlink="http://www.w3.org/1999/xlink" x="0px" y="0px"
	 viewBox="0 0 734.6 734.6" enable-background="new 0 0 734.6 734.6" xml:space="preserve">
<path fill="#ED7C50" stroke="#ED7C50" stroke-width="10" stroke-miterlimit="10" d="M367.3,5C167.2,5,5,167.2,5,367.3
	s162.2,362.3,362.3,362.3s362.3-162.2,362.3-362.3S567.4,5,367.3,5z M367.3,693.5c-180.2,0-326.2-146.1-326.2-326.2
	S187.1,41.1,367.3,41.1s326.2,146.1,326.2,326.2S547.5,693.5,367.3,693.5z"/>
<g id="Layer_2">
	<g>
		<path fill="#ED7C50" d="M314.1,642.6c2.6,0,17.1-3.9,26.1-15.1c10.3-12.5,2.9-42.8-1-63.4c-3.9-20.6-10.6-68.8-13.5-101.3
			c-2.9-32.8-2.6-122.3-1.9-142.5c0.6-20.3,2.9-18,7.4-28c4.5-10,17.1-16.4,19.9-37.3s-2.9-69.5-7.1-116.5
			c-4.2-47.3-4.5-38.3-4.5-31.9s0.6,122.6-0.3,128.7c-1,6.1-10,4.8-10.6,0c-0.6-4.8-1-8.7-2.6-34.1c-1.6-25.1-5.5-98.4-6.8-98.1
			c-1.3,0.3-0.6,126.8-0.6,132.9c0,5.5-3.5,4.8-4.5,4.8l0,0c-1,0-4.5,0.6-4.5-4.8c0-6.1,0.6-132.5-0.6-132.9
			c-1.3-0.3-5.1,73-6.8,98.1s-1.9,29.3-2.6,34.1c-0.6,4.8-9.7,6.1-10.6,0s-0.3-122.3-0.3-128.7c0-6.4-0.3-15.4-4.5,31.9
			c-4.8,47.3-10.6,95.6-7.7,116.5c2.9,20.9,15.4,27.3,19.9,37.3c4.5,10,6.8,7.4,7.4,28c0.6,20.3,1,109.7-1.9,142.5
			s-9.7,80.8-13.5,101.3c-3.9,20.6-11.3,51.2-1,63.4c9,11.3,23.5,15.1,26.1,15.1H314.1L314.1,642.6z"/>
		<path fill="#ED7C50" d="M414.2,125.9c0,0,9.3-18,15.4-21.9c6.1-3.5,15.4-6.4,16.4,10s5.5,204.9,4.8,215.6
			c-0.3,10.9-2.6,40.2-3.9,56c-1.3,15.4-2.6,24.1,2.3,77.5c5.1,53.4,14.5,121,7.4,144.5c0,0-5.1,22.2-24.1,22.2S410,614.3,408,598.2
			c0,0-3.2-34.1,0.6-104.6c3.9-70.5,5.5-82.7,5.1-95.9c-0.3-13.2-5.8-44.7-8-60.8c-2.3-16.4-5.1-71.4-4.2-117.4
			C402.2,173.5,407.1,142.3,414.2,125.9z"/>
	</g>
</g>
</svg>
