<?xml version="1.0" encoding="utf-8"?>
<!-- Generator: Adobe Illustrator 18.1.0, SVG Export Plug-In . SVG Version: 6.00 Build 0)  -->
<!DOCTYPE svg PUBLIC "-//W3C//DTD SVG 1.1//EN" "http://www.w3.org/Graphics/SVG/1.1/DTD/svg11.dtd">
<svg version="1.1" id="Layer_1" xmlns="http://www.w3.org/2000/svg" xmlns:xlink="http://www.w3.org/1999/xlink" x="0px" y="0px"
	 viewBox="0 0 734.6 734.6" enable-background="new 0 0 734.6 734.6" xml:space="preserve">
<path fill="#ED7C50" stroke="#ED7C50" stroke-width="10" stroke-miterlimit="10" d="M367.3,5C167.2,5,5,167.2,5,367.3
	s162.2,362.3,362.3,362.3s362.3-162.2,362.3-362.3S567.4,5,367.3,5z M367.3,693.5c-180.2,0-326.2-146.1-326.2-326.2
	S187.1,41.1,367.3,41.1s326.2,146.1,326.2,326.2S547.5,693.5,367.3,693.5z"/>
<g id="Layer_2_1_">
	<g id="Layer_2_2_">
		<g>
			<circle fill="#ED7C50" cx="368.1" cy="521.8" r="59.4"/>
			<path fill="#ED7C50" d="M265.2,410l34.7,36.6c0,0,20.4-31.7,68.2-32.6c0,0,31.4-1.8,59.4,32.6l37.8-36.2c0,0-28.3-49.7-97.2-49.7
				C368.1,360.4,306.6,355.5,265.2,410z"/>
			<path fill="#ED7C50" d="M196.3,343l34.1,36.6c0,0,43-57.3,140.7-58.8c0,0,73.4-4.3,127,58.8l37.8-37.5c0,0-58.8-77.4-183.7-77.4
				C352,265,258.5,265,196.3,343z"/>
			<path fill="#ED7C50" d="M164.7,312.9c0,0,184.6-192.8,401.2,0l38.4-38.4c0,0-227.5-241.6-474,0.9L164.7,312.9z"/>
		</g>
	</g>
</g>
</svg>
