<?xml version="1.0" encoding="utf-8"?>
<!-- Generator: Adobe Illustrator 18.1.0, SVG Export Plug-In . SVG Version: 6.00 Build 0)  -->
<!DOCTYPE svg PUBLIC "-//W3C//DTD SVG 1.1//EN" "http://www.w3.org/Graphics/SVG/1.1/DTD/svg11.dtd">
<svg version="1.1" xmlns="http://www.w3.org/2000/svg" xmlns:xlink="http://www.w3.org/1999/xlink" x="0px" y="0px"
	 viewBox="0 0 218.8 218.8" enable-background="new 0 0 218.8 218.8" xml:space="preserve">
<g id="Layer_1">
	<circle fill="#F4B096" stroke="#ED7C50" stroke-width="4" stroke-miterlimit="10" cx="109.4" cy="109.4" r="106.4"/>
	<circle fill="#F4B096" stroke="#ED7C50" stroke-width="7" stroke-miterlimit="10" cx="109.4" cy="109.4" r="95.8"/>
</g>
<g id="Layer_2">
	<g id="Layer_2_1_">
		<g>
			<circle fill="#ED7C50" cx="109.6" cy="166.7" r="19.5"/>
			<path fill="#ED7C50" d="M75.8,130L87.2,142c0,0,6.7-10.4,22.4-10.7c0,0,10.3-0.6,19.5,10.7l12.4-11.9c0,0-9.3-16.3-31.9-16.3
				C109.6,113.7,89.4,112.1,75.8,130z"/>
			<path fill="#ED7C50" d="M53.2,108L64.4,120c0,0,14.1-18.8,46.2-19.3c0,0,24.1-1.4,41.7,19.3l12.4-12.3c0,0-19.3-25.4-60.3-25.4
				C104.3,82.4,73.6,82.4,53.2,108z"/>
			<path fill="#ED7C50" d="M42.8,98.1c0,0,60.6-63.3,131.7,0l12.6-12.6c0,0-74.7-79.3-155.6,0.3L42.8,98.1z"/>
		</g>
	</g>
</g>
</svg>
