<?xml version="1.0" encoding="utf-8"?>
<!-- Generator: Adobe Illustrator 18.1.0, SVG Export Plug-In . SVG Version: 6.00 Build 0)  -->
<!DOCTYPE svg PUBLIC "-//W3C//DTD SVG 1.1//EN" "http://www.w3.org/Graphics/SVG/1.1/DTD/svg11.dtd">
<svg version="1.1" xmlns="http://www.w3.org/2000/svg" xmlns:xlink="http://www.w3.org/1999/xlink" x="0px" y="0px"
	 viewBox="0 0 218.8 218.8" enable-background="new 0 0 218.8 218.8" xml:space="preserve">
<g id="Layer_1">
	<g>
		<circle fill="#F4B096" stroke="#ED7C50" stroke-width="4" stroke-miterlimit="10" cx="109.2" cy="109.4" r="106.4"/>
		<circle fill="#F4B096" stroke="#ED7C50" stroke-width="7" stroke-miterlimit="10" cx="109.2" cy="109.4" r="95.8"/>
	</g>
</g>
<g id="Layer_2">
	<g>
		<g>
			<path fill="#ED7C50" d="M131.2,116.8h-0.9c0,0-5.4-1-5.4-15.9c0-4.4-23.7-4.6-23.7,0.1c0,14.4-5.5,15.8-5.5,15.8H95
				c-0.7,0-1.4,1.4-1.4,2.1v0.6c0,0.7,0.7,0.4,1.4,0.4h36.2c0.7,0,1.4,0.3,1.4-0.4v-0.6C132.6,118.2,131.8,116.8,131.2,116.8z"/>
			<path fill="#ED7C50" d="M155,42.8H71c-1.6,0-3.4,0.9-3.4,2.5v50.9v7.8c0,1.6,1.7,3.8,3.4,3.8H155c1.6,0,2.6-2.2,2.6-3.8v-7.8
				V45.3C157.6,43.7,156.7,42.8,155,42.8z"/>
			<rect x="71.6" y="48.8" fill="#F4B096" width="80" height="46"/>
			<path fill="#F4B096" d="M116.7,101c0,2-1.6,3.7-3.7,3.7l0,0c-2,0-3.7-1.6-3.7-3.7l0,0c0-2,1.6-3.7,3.7-3.7l0,0
				C115,97.3,116.7,99,116.7,101L116.7,101z"/>
		</g>
		<path fill="#ED7C50" d="M113.6,156.8h-69v-43.4c0-0.9,1.3-1.6,2.2-1.6h65.5c0.9,0,1.3,0.7,1.3,1.6V156.8z"/>
		<rect x="47.6" y="115.8" fill="#F4B096" width="64" height="38"/>
		<path fill="#ED7C50" d="M122.6,158.8v-1.4c0-0.5-0.3-0.6-0.7-0.6H37.7c-0.5,0-1.1,0.1-1.1,0.6v1.4h0.3c0,0,2.1,2,3.3,2h79.2
			C120.6,160.8,122.7,158.8,122.6,158.8L122.6,158.8z"/>
		<path fill="#F4B096" d="M87.2,157.8H72.3c-1.2,0-1.2-1-1.2-1h17.4C88.5,156.8,88.5,157.8,87.2,157.8z"/>
		<path fill="#ED7C50" d="M185.6,134.4c0,1.8-1.4,3.4-3,3.4h-32.7c-1.7,0-3.3-1.6-3.3-3.4V89.6c0-1.8,1.7-2.8,3.3-2.8h32.7
			c1.7,0,3,1,3,2.8V134.4z"/>
		<rect x="149.6" y="89.8" fill="#F4B096" width="33" height="40"/>
		<circle fill="#F4B096" cx="166.3" cy="133.7" r="2.6"/>
		<path fill="#4D4D4D" d="M152.6,165.8c0,1.5-1.1,3-2.6,3h-16.9c-1.5,0-2.5-1.5-2.5-3v-36.5c0-1.5,1.1-2.5,2.5-2.5H150
			c1.5,0,2.6,1.1,2.6,2.5V165.8z"/>
		<path fill="#ED7C50" d="M152.6,165.8c0,1.5-1.1,3-2.6,3h-16.9c-1.5,0-2.5-1.5-2.5-3v-36.5c0-1.5,1.1-2.5,2.5-2.5H150
			c1.5,0,2.6,1.1,2.6,2.5V165.8z"/>
		<rect x="132.6" y="131.8" fill="#F4B096" width="18" height="31"/>
		<circle fill="#F4B096" cx="141.6" cy="165.5" r="1.6"/>
		<path fill="#F4B096" d="M145.6,129.4c0,0.2-0.2,0.4-0.4,0.4H137c-0.2,0-0.4-0.2-0.4-0.4v-0.2c0-0.2,0.2-0.4,0.4-0.4h8.2
			c0.2,0,0.4,0.2,0.4,0.4V129.4z"/>
	</g>
</g>
</svg>
