<?xml version="1.0" encoding="utf-8"?>
<!-- Generator: Adobe Illustrator 18.1.0, SVG Export Plug-In . SVG Version: 6.00 Build 0)  -->
<!DOCTYPE svg PUBLIC "-//W3C//DTD SVG 1.1//EN" "http://www.w3.org/Graphics/SVG/1.1/DTD/svg11.dtd">
<svg version="1.1" xmlns="http://www.w3.org/2000/svg" xmlns:xlink="http://www.w3.org/1999/xlink" x="0px" y="0px"
	 viewBox="0 0 218.8 218.8" enable-background="new 0 0 218.8 218.8" xml:space="preserve">
<g id="Layer_1">
	<g>
		<circle fill="#F4B096" stroke="#ED7C50" stroke-width="4" stroke-miterlimit="10" cx="109.9" cy="109.6" r="106.4"/>
		<circle fill="#F4B096" stroke="#ED7C50" stroke-width="7" stroke-miterlimit="10" cx="109.9" cy="109.6" r="95.8"/>
	</g>
</g>
<g id="Layer_2">
	<g>
		<path fill="#ED7C50" d="M121.1,124.3c0,0,4,5.5,8.3,11.5h0.2v9h11v22h-62v-22h10v-9h2.3c-0.1-4,0-2.5,0.3-2.9c4-5,7.4-9.2,7.4-9.2
			c-41.6-20.6-35.9-63.9-35.9-63.9h94.6C157.9,104.8,121.1,124.3,121.1,124.3z"/>
		<rect x="55.6" y="52.8" fill="#ED7C50" width="106" height="7"/>
		<path fill="none" stroke="#ED7C50" stroke-width="5" stroke-miterlimit="10" d="M59.2,55.8l-8,0.7l-0.8,0.6
			c0,0-6.1,25.7,13.6,42.6c1,0.8,2.3,1.2,3.6,1.1l9.2-0.8"/>
		<path fill="none" stroke="#ED7C50" stroke-width="5" stroke-miterlimit="10" d="M158.8,56.3l8,0.2l0.8,0.5c0,0,7.8,25.2-10.7,43.4
			c-0.9,0.9-2.2,1.4-3.5,1.3l-10.4,0"/>
	</g>
</g>
</svg>
