<?xml version="1.0" encoding="utf-8"?>
<!-- Generator: Adobe Illustrator 18.1.0, SVG Export Plug-In . SVG Version: 6.00 Build 0)  -->
<!DOCTYPE svg PUBLIC "-//W3C//DTD SVG 1.1//EN" "http://www.w3.org/Graphics/SVG/1.1/DTD/svg11.dtd">
<svg version="1.1" id="Layer_1" xmlns="http://www.w3.org/2000/svg" xmlns:xlink="http://www.w3.org/1999/xlink" x="0px" y="0px"
	 viewBox="0 0 960 560" enable-background="new 0 0 960 560" xml:space="preserve">
<g id="Layer_1_1_">
	<g>
		<circle fill="#F4B096" stroke="#ED7C50" stroke-width="4" stroke-miterlimit="10" cx="479.5" cy="280" r="272.3"/>
		<circle fill="#F4B096" stroke="#ED7C50" stroke-width="7" stroke-miterlimit="10" cx="479.5" cy="280" r="245.2"/>
	</g>
</g>
<g id="Layer_2">
	<circle fill="#ED7C50" cx="360.5" cy="233.9" r="75.8"/>
	<circle fill="#ED7C50" cx="562.9" cy="154.8" r="71.9"/>
	<path fill="#ED7C50" d="M630.7,360.4L630.7,360.4L630.7,360.4L630.7,360.4z"/>
	<path fill="#ED7C50" d="M639.2,373.2c0,0,0.5,0,1.8-0.5c0.3,0,0.5-0.3,0.8-0.5"/>
	<g>
		<circle fill="#ED7C50" cx="539.4" cy="413.1" r="65.3"/>
	</g>
	<line fill="none" stroke="#ED7C50" stroke-width="9" stroke-miterlimit="10" x1="416.8" y1="201.9" x2="510.2" y2="172"/>
	<line fill="none" stroke="#ED7C50" stroke-width="9" stroke-miterlimit="10" x1="380.7" y1="300.5" x2="487.9" y2="396.7"/>
	<path fill="#F4B096" d="M360.5,227.1c10.7,0,19.4-8.7,19.4-19.4c0-10.7-8.7-19.4-19.4-19.4c-10.7,0-19.4,8.7-19.4,19.4
		C341,218.4,349.7,227.1,360.5,227.1"/>
	<path fill="#F4B096" d="M368.7,228.4h-16.5c-13.7,0-24.9,11.2-24.9,24.9v20.2l0.1,0.3l1.4,0.4c13.1,4.1,24.5,5.5,33.8,5.5
		c18.3,0,28.9-5.2,29.5-5.5l1.3-0.7h0.1v-20.2C393.6,239.6,382.4,228.4,368.7,228.4"/>
	<g>
		<path fill="#F4B096" d="M562.9,148c10.7,0,19.4-8.7,19.4-19.4c0-10.7-8.7-19.4-19.4-19.4c-10.7,0-19.4,8.7-19.4,19.4
			C543.5,139.3,552.2,148,562.9,148"/>
		<path fill="#F4B096" d="M571.2,149.3h-16.5c-13.7,0-24.9,11.2-24.9,24.9v20.2l0.1,0.3l1.4,0.4c13.1,4.1,24.5,5.5,33.8,5.5
			c18.3,0,28.9-5.2,29.5-5.5l1.3-0.7h0.1v-20.2C596.1,160.5,584.9,149.3,571.2,149.3"/>
	</g>
	<path fill="#F4B096" d="M539.4,406.2c10.7,0,19.4-8.7,19.4-19.4c0-10.7-8.7-19.4-19.4-19.4c-10.7,0-19.4,8.7-19.4,19.4
		C519.9,397.5,528.6,406.2,539.4,406.2"/>
	<path fill="#F4B096" d="M547.6,407.6h-16.5c-13.7,0-24.9,11.2-24.9,24.9v20.2l0.1,0.3l1.4,0.4c13.1,4.1,24.5,5.5,33.8,5.5
		c18.3,0,28.9-5.2,29.5-5.5l1.3-0.7h0.1v-20.2C572.5,418.7,561.3,407.6,547.6,407.6"/>
</g>
</svg>
