<?xml version="1.0" encoding="utf-8"?>
<!-- Generator: Adobe Illustrator 18.1.0, SVG Export Plug-In . SVG Version: 6.00 Build 0)  -->
<!DOCTYPE svg PUBLIC "-//W3C//DTD SVG 1.1//EN" "http://www.w3.org/Graphics/SVG/1.1/DTD/svg11.dtd">
<svg version="1.1" xmlns="http://www.w3.org/2000/svg" xmlns:xlink="http://www.w3.org/1999/xlink" x="0px" y="0px"
	 viewBox="0 0 218.8 218.8" enable-background="new 0 0 218.8 218.8" xml:space="preserve">
<g id="Layer_1">
	<g>
		<circle fill="#F4B096" stroke="#ED7C50" stroke-width="4" stroke-miterlimit="10" cx="109.2" cy="109.4" r="106.4"/>
		<circle fill="#F4B096" stroke="#ED7C50" stroke-width="7" stroke-miterlimit="10" cx="109.2" cy="109.4" r="95.8"/>
	</g>
</g>
<g id="Layer_2">
	<g id="Layer_2_1_">
		<circle fill="#ED7C50" cx="60.7" cy="91.7" r="30.1"/>
		<circle fill="#ED7C50" cx="141.3" cy="60.2" r="28.6"/>
		<path fill="#ED7C50" d="M168.2,142L168.2,142L168.2,142L168.2,142z"/>
		<path fill="#ED7C50" d="M171.6,147.1c0,0,0.2,0,0.7-0.2c0.1,0,0.2-0.1,0.3-0.2"/>
		<g>
			<circle fill="#ED7C50" cx="131.9" cy="163" r="26"/>
		</g>
		<line fill="none" stroke="#ED7C50" stroke-width="9" stroke-miterlimit="10" x1="83.1" y1="79" x2="120.3" y2="67"/>
		<line fill="none" stroke="#ED7C50" stroke-width="9" stroke-miterlimit="10" x1="68.7" y1="118.2" x2="111.4" y2="156.5"/>
		<path fill="#F4B096" d="M60.7,89c4.3,0,7.7-3.5,7.7-7.7c0-4.3-3.5-7.7-7.7-7.7c-4.3,0-7.7,3.5-7.7,7.7C53,85.5,56.4,89,60.7,89"/>
		<path fill="#F4B096" d="M64,89.5h-6.6c-5.5,0-9.9,4.4-9.9,9.9v8l0,0.1l0.6,0.2c5.2,1.6,9.7,2.2,13.5,2.2c7.3,0,11.5-2.1,11.8-2.2
			l0.5-0.3h0.1v-8C73.9,93.9,69.4,89.5,64,89.5"/>
		<g>
			<path fill="#F4B096" d="M141.3,57.5c4.3,0,7.7-3.5,7.7-7.7c0-4.3-3.5-7.7-7.7-7.7c-4.3,0-7.7,3.5-7.7,7.7
				C133.5,54,137,57.5,141.3,57.5"/>
			<path fill="#F4B096" d="M144.5,58H138c-5.5,0-9.9,4.4-9.9,9.9v8l0,0.1l0.6,0.2c5.2,1.6,9.7,2.2,13.5,2.2c7.3,0,11.5-2.1,11.8-2.2
				l0.5-0.3h0.1v-8C154.4,62.5,150,58,144.5,58"/>
		</g>
		<path fill="#F4B096" d="M131.9,160.2c4.3,0,7.7-3.5,7.7-7.7c0-4.3-3.5-7.7-7.7-7.7c-4.3,0-7.7,3.5-7.7,7.7
			C124.2,156.8,127.6,160.2,131.9,160.2"/>
		<path fill="#F4B096" d="M135.2,160.8h-6.6c-5.5,0-9.9,4.4-9.9,9.9v8l0,0.1l0.6,0.2c5.2,1.6,9.7,2.2,13.5,2.2
			c7.3,0,11.5-2.1,11.8-2.2l0.5-0.3h0.1v-8C145.1,165.2,140.6,160.8,135.2,160.8"/>
	</g>
</g>
</svg>
