<?xml version="1.0" encoding="utf-8"?>
<!-- Generator: Adobe Illustrator 18.1.0, SVG Export Plug-In . SVG Version: 6.00 Build 0)  -->
<!DOCTYPE svg PUBLIC "-//W3C//DTD SVG 1.1//EN" "http://www.w3.org/Graphics/SVG/1.1/DTD/svg11.dtd">
<svg version="1.1" xmlns="http://www.w3.org/2000/svg" xmlns:xlink="http://www.w3.org/1999/xlink" x="0px" y="0px"
	 viewBox="0 0 218.8 218.8" enable-background="new 0 0 218.8 218.8" xml:space="preserve">
<g id="Layer_1">
	<g>
		<circle fill="#F4B096" stroke="#ED7C50" stroke-width="4" stroke-miterlimit="10" cx="109.2" cy="109.4" r="106.4"/>
		<circle fill="#F4B096" stroke="#ED7C50" stroke-width="7" stroke-miterlimit="10" cx="109.2" cy="109.4" r="95.8"/>
	</g>
</g>
<g id="Layer_2">
	<path fill="#ED7C50" d="M126.4,71.7c6.1,3.8,10.4,10.3,11.2,17.9c2.5,1.2,5.3,1.8,8.2,1.8c10.7,0,19.4-8.7,19.4-19.4
		c0-10.7-8.7-19.4-19.4-19.4C135.2,52.6,126.5,61.1,126.4,71.7 M113.6,111.5c10.7,0,19.4-8.7,19.4-19.4c0-10.7-8.7-19.4-19.4-19.4
		c-10.7,0-19.4,8.7-19.4,19.4C94.2,102.8,102.9,111.5,113.6,111.5 M121.9,112.8h-16.5c-13.7,0-24.9,11.2-24.9,24.9v20.2l0.1,0.3
		l1.4,0.4c13.1,4.1,24.5,5.5,33.8,5.5c18.3,0,28.9-5.2,29.5-5.5l1.3-0.7h0.1v-20.2C146.8,124,135.6,112.8,121.9,112.8 M154,92.7
		h-16.4c-0.2,6.5-3,12.4-7.4,16.7c12.2,3.6,21.1,14.9,21.1,28.3v6.2c16.2-0.6,25.5-5.2,26.1-5.5l1.3-0.7h0.1v-20.2
		C178.9,103.9,167.8,92.7,154,92.7 M79.5,91.4c3.8,0,7.3-1.1,10.3-3c1-6.2,4.3-11.6,9-15.3c0-0.4,0.1-0.7,0.1-1.1
		c0-10.7-8.7-19.4-19.4-19.4c-10.7,0-19.4,8.7-19.4,19.4C60.1,82.7,68.8,91.4,79.5,91.4 M97,109.4c-4.4-4.2-7.2-10.1-7.4-16.6
		c-0.6,0-1.2-0.1-1.8-0.1H71.3c-13.7,0-24.9,11.2-24.9,24.9v20.2l0.1,0.3l1.4,0.4c10.5,3.3,19.9,4.8,28,5.3v-6.1
		C75.9,124.4,84.8,113.1,97,109.4"/>
</g>
</svg>
