<?xml version="1.0" encoding="utf-8"?>
<!-- Generator: Adobe Illustrator 18.1.0, SVG Export Plug-In . SVG Version: 6.00 Build 0)  -->
<!DOCTYPE svg PUBLIC "-//W3C//DTD SVG 1.1//EN" "http://www.w3.org/Graphics/SVG/1.1/DTD/svg11.dtd">
<svg version="1.1" xmlns="http://www.w3.org/2000/svg" xmlns:xlink="http://www.w3.org/1999/xlink" x="0px" y="0px"
	 viewBox="0 0 218.8 218.8" enable-background="new 0 0 218.8 218.8" xml:space="preserve">
<g id="Layer_1">
	<circle fill="#F4B096" stroke="#ED7C50" stroke-width="4" stroke-miterlimit="10" cx="109.4" cy="109.4" r="106.4"/>
	<circle fill="#F4B096" stroke="#ED7C50" stroke-width="7" stroke-miterlimit="10" cx="109.4" cy="109.4" r="95.8"/>
</g>
<g id="Layer_2">
	<path fill="#ED7C50" d="M40.4,124.2L40.4,124.2c-6.5,0-11.8,5.3-11.8,11.8v25.2c0,6.5,5.3,11.8,11.8,11.8l0,4.6
		c5.1,2.6,11.8,7.7,11.8,1.2V136C52.2,129.5,46.9,124.2,40.4,124.2z"/>
	<path fill="#ED7C50" d="M68.4,100.4L68.4,100.4c-6.5,0-11.8,7.4-11.8,16.4v71.4c3.6,8.1,0.7,6.6,7.2,6.6l4.6,0.9
		c5.1,3.6,5.1,3.6,11.8,1.7v-80.6C80.2,107.8,74.8,100.4,68.4,100.4z"/>
	<path fill="#ED7C50" d="M96.3,152.3L96.3,152.3c-6.5,0-11.8,7.4-11.8,16.4v35.8c7.9,0,0.5,1.6,7,1.6l4.8-1.6
		c5.1,3.6,2.4,0,11.8-1.3v-34.5C108.1,159.7,102.8,152.3,96.3,152.3z"/>
	<path fill="#ED7C50" d="M124.3,67.9L124.3,67.9c6.5,0,11.8,7.4,11.8,16.4v114c-3.6,8.1-0.7,6.6-7.2,6.6l-4.6,0.9
		c-6.1-0.6-6.1-0.6-11.8,1.7V84.3C112.5,75.2,117.8,67.9,124.3,67.9z"/>
	<path fill="#ED7C50" d="M152.2,91.3L152.2,91.3c6.5,0,11.8,7.4,11.8,16.4v81.5c-6.3,4.2-2.5,2.2-7.2,6.6l-4.6,0.9
		c-6.1-0.6-6.1-0.6-11.8,1.7v-90.7C140.4,98.7,145.8,91.3,152.2,91.3z"/>
	<path fill="#ED7C50" d="M180.2,64.1L180.2,64.1c6.5,0,11.8,7.4,11.8,16.4V162c-6.3,4.2-2.5,2.2-7.2,6.6l-4.6,2.8
		c0,6.5-6.1,11.9-11.8,14.2V80.5C168.4,71.5,173.7,64.1,180.2,64.1z"/>
</g>
</svg>
