<?xml version="1.0" encoding="utf-8"?>
<!-- Generator: Adobe Illustrator 18.1.0, SVG Export Plug-In . SVG Version: 6.00 Build 0)  -->
<!DOCTYPE svg PUBLIC "-//W3C//DTD SVG 1.1//EN" "http://www.w3.org/Graphics/SVG/1.1/DTD/svg11.dtd">
<svg version="1.1" id="Layer_1" xmlns="http://www.w3.org/2000/svg" xmlns:xlink="http://www.w3.org/1999/xlink" x="0px" y="0px"
	 viewBox="0 0 734.6 734.6" enable-background="new 0 0 734.6 734.6" xml:space="preserve">
<path fill="#ED7C50" stroke="#ED7C50" stroke-width="10" stroke-miterlimit="10" d="M367.3,5C167.2,5,5,167.2,5,367.3
	s162.2,362.3,362.3,362.3s362.3-162.2,362.3-362.3S567.4,5,367.3,5z M367.3,693.5c-180.2,0-326.2-146.1-326.2-326.2
	S187.1,41.1,367.3,41.1s326.2,146.1,326.2,326.2S547.5,693.5,367.3,693.5z"/>
<g id="Layer_2">
	<path fill="#ED7C50" d="M132.6,421.2L132.6,421.2c-22.1,0-40.2,17.7-40.2,39.3v84c6.4,21.3,18.1,39.3,40.2,39.3v15.3
		c17.3,8.6,40.2,45.6,40.2,23.9V460.6C172.8,438.9,154.7,421.2,132.6,421.2z"/>
	<path fill="#ED7C50" d="M227.9,341.9L227.9,341.9c-22.1,0-40.2,24.6-40.2,54.7v237.9c24.5,22,4.9,12.1,24.5,22l15.7,3.1
		c17.3,12,17.3,21.3,40.2,15V396.6C268,366.6,249.7,341.9,227.9,341.9z"/>
	<path fill="#ED7C50" d="M322.9,514.9L322.9,514.9c-22.1,0-40.2,24.6-40.2,54.7v119.2c26.9,0,1.7,5.3,23.8,5.3l16.4-5.3
		c17.3,12,8.1,6.7,40.2,2.3V569.4C363,539.5,344.9,514.9,322.9,514.9z"/>
	<path fill="#ED7C50" d="M418.1,233.7L418.1,233.7c22.1,0,40.2,24.6,40.2,54.7v392.4c-24.5,9.4-2.4,9.4-24.5,9.4l-15.7,3.1
		c-20.8-2-20.8-2-40.2,5.7V288.3C377.9,258.1,396,233.7,418.1,233.7z"/>
	<path fill="#ED7C50" d="M513.1,313L513.1,313c22.1,0,40.2,24.6,40.2,54.7v271.4c-21.4,14-17-1.7-33,12.9l-7.2,12
		c-20.8-2-20.8-2-40.2,5.7V367.6C472.9,337.6,491.3,313,513.1,313z"/>
	<path fill="#ED7C50" d="M608.4,221.1L608.4,221.1c22.1,0,40.2,24.6,40.2,54.7v264.5c-21.4,14-8.5,14.2-24.5,28.9l-15.7,9.3
		c0,21.7-20.8,39.6-40.2,47.4V275.6C568.2,245.7,586.3,221.1,608.4,221.1z"/>
</g>
</svg>
