<?xml version="1.0" encoding="utf-8"?>
<!-- Generator: Adobe Illustrator 18.1.0, SVG Export Plug-In . SVG Version: 6.00 Build 0)  -->
<!DOCTYPE svg PUBLIC "-//W3C//DTD SVG 1.1//EN" "http://www.w3.org/Graphics/SVG/1.1/DTD/svg11.dtd">
<svg version="1.1" id="Layer_1" xmlns="http://www.w3.org/2000/svg" xmlns:xlink="http://www.w3.org/1999/xlink" x="0px" y="0px"
	 viewBox="0 0 734.6 734.6" enable-background="new 0 0 734.6 734.6" xml:space="preserve">
<path fill="#ED7C50" stroke="#ED7C50" stroke-width="10" stroke-miterlimit="10" d="M367.3,5C167.2,5,5,167.2,5,367.3
	s162.2,362.3,362.3,362.3s362.3-162.2,362.3-362.3S567.4,5,367.3,5z M367.3,693.5c-180.2,0-326.2-146.1-326.2-326.2
	S187.1,41.1,367.3,41.1s326.2,146.1,326.2,326.2S547.5,693.5,367.3,693.5z"/>
<g id="Layer_2_1_">
	<path fill="#ED7C50" d="M460.7,162.6c-36.9,0-70.1,16.4-92.6,42c-22.2-25.6-55.4-42-92.3-42c-67.7,0-122.7,55-122.7,122.7
		c0,124.1,215.3,310.3,215.3,310.3s215.3-186.3,215.3-310.3C583.4,217.6,528.8,162.6,460.7,162.6z"/>
</g>
</svg>
